<?xml version="1.0" encoding="UTF-8"?>
<svg id="Layer_1" xmlns="http://www.w3.org/2000/svg" version="1.1" viewBox="0 0 4000 3000">
  <!-- Generator: Adobe Illustrator 29.8.1, SVG Export Plug-In . SVG Version: 2.1.1 Build 2)  -->
  <defs>
    <style>
      .st0 {
        fill: #231f20;
      }
    </style>
  </defs>
  <path class="st0" d="M3113.01,676.76c-25.11-34.09-91.21-68.15-127.38-93.56,30.72-11.97,59.86-36.96,73.2-67.61,27.35-62.87-13.03-117.07-71.1-141.21-51.77-21.52-93.03-11.64-146.22-5.32-31.12,3.7-62.25,9.91-93.41,12.62-7.3.63-9.49-6.53-8.12-12.52,8.71-10.17,49.85-14.92,17.55-44.7-6.01-5.54-16.52-4.69-24.32-3.87-28.51,10.1-46.31,35.71-48.66,65.57-28.56-16.2-59.7-36.39-91.22-45.04-7.06-1.94-22.71-.26-30.12,2.12-121.91,39.15-198.35,187.82-223.17,302.25-63.99-21.85-155.66-16.29-220.87,2.54-25.45,7.35-56.46,21.3-80.41,32.82-138.32,66.56-220.3,191.31-290.18,322.41-27,50.66-51.45,90.78-69.67,146.91-17.59,54.2-28.25,109.09-42.94,164.1-11.49,43.03-27.13,85.21-40.56,127.53-87.58,4.41-287.61,30.97-348.66,98.43-13.16,14.54-20.09,28.38-18.71,48.49,1.8,26.35,5.18,52.79,7.85,79.08,4.18,41.13,8.07,82.28,12.73,123.37,13.93,122.79,30.02,254.33,64.44,373.02-109.35,19.59-361.87,57.83-427.82,150.98-11.79,16.66-17.97,37.15-14.25,57.52,8.34,45.76,64.86,84.12,101.38,108.44,111.14,74.02,238.42,124.73,367.98,156.07,46.76,11.31,94.26,18.55,141.89,25.02,184.81,25.09,374.86,25.63,558.1-11.36,57.2-11.55,125.32-29.87,180.22-49.59,84.18-30.24,248.91-108.89,298.75-183.22,11.59-17.28,16.75-37.3,12.27-57.91-4.18-19.22-16.17-34.26-30.64-47.03-67.14-61.04-188.29-94.41-275.72-116.83-32.69-8.38-74.59-13.98-108.34-19.91,20.77-25.46,45.49-53.58,74.28-70.21,47.13-27.24,101.05-44.71,152.2-63.32,90.24-32.84,190.61-121.11,179.99-226.15-11.14-101.06-121.76-132.36-208.21-119.17-61.12,9.32-93.3,21.98-144.59,53.87l9.8-98.73c2.37-23.49,7.95-50.84,4.73-74.24-1.65-11.98-7.52-23.28-15.21-32.5-59.11-70.9-252.23-97.13-340.41-104.47-40.26-3.35-80.46-3.77-120.83-4.23,17.79-38.53,38.27-74.6,53.28-114.31,17.16-45.16,26.78-92.72,42.41-138.42,43.49-127.17,100.78-255.28,187.23-359.32,11.53-13.88,43.33-52.01,58.73-59.6,190.89-94.04,358.11,50.39,511.21,146.36,82.28,51.58,165.5,101.23,249.67,149.65,4.23,2.4,6.3,4.67,8.41,8.94,25.9,52.47,86.24,44.37,127.42,15.63,90.45-63.18,152.62-168.74,176.27-275.38,8.3-37.42,13.16-102.26-10.24-134.03ZM1681.93,1488.3c86.12,0,171.46,6.53,256.83,23,35.27,6.81,110,18.04,129.96,53.37,4.53,8.02-.08,21.03-3.42,29.32l-9.32-5.18c-44.29-24.47-82.29-31.06-131.59-40.38-87.05-16.46-171.78-19.33-260.11-11.47,5.67-16.8,10.81-32.29,17.64-48.65ZM1672.31,1633.7c-9.78-1.91-18.76-1.88-28.67-2.17-.25-27.56,8.43-57.27,16.65-83.39,18.43,1.11,43.12-.2,62.04-.71,75.42-1.83,223.96,7.25,293.17,49.88,10.89,6.71,15.05,22.6,16.51,35.15-11.9,3.34-24,5.36-36.22,7.09,30.26-56.06-105.92-64.49-136.98-67.74-49.26-5.15-144.27-8.69-181.97,26.26,40.43,2.58,81.51,6.24,119.62,21.08,21.43,8.34,20.2,19.12,10.96,35.76,4.01-.7,14.62-2.67,16.99-5.63,37.58-46.75-78.96-54.58-103.04-56.25-8.39-.58-17.29,1.05-25.33.89,4.65-6.67,27.72-6.46,36.13-6.72,44.98-1.36,91.43.15,132.66,20.24,30.15,14.69,33.74,28.13,1.5,43.54-19.3,7.86-83.41,8.61-107.81,9.47,22.36-9.84,58.17-29.38,12.49-42.78-38.32-11.24-81.07-8.61-116.2,10.35l12.12,2.81c19.29,4.58,66.11-7.38,77.12,4.47-.42,3.88-1.69,5.61-4.63,8.17-25.62,22.25-62.15,15.15-93.44,13.8-41.17-1.77-185.53-8.66-211.45-38.98-6.12-7.16-5.11-14.11-5.11-14.11.7-7.06,6.52-12.02,10.53-14.99,21.68-16.07,56.08-22.76,59.7-23.44,17.31-3.24,38.65-6.71,63.35-9.52-1.35,4.8-2.74,9.65-4.22,14.55-1.46,4.83-2.95,9.65-4.43,14.49-11.96.03-53.58,3.16-58.33,16.27-5.31,17.25,21.02,29.77,33.67,33.59,44.96,13.57,99.43,19.45,142.61-1.43ZM1374.61,1610.99c.26,1.91.68,3.78,1.08,5.66-4.69-.31-22.46-6.75-29.28-9.96-6.98-3.28-12.92-8.27-16.77-14.17-.19.23-.39.49-.56.69.15-.31.29-.59.43-.89-1.38-2.19-4.53-7.84-4.26-15.56.19-5.44,1.99-9.56,3.18-11.8.68-1.21,1.47-2.42,2.37-3.62,3.95-5.23,10.25-10.11,10.25-10.11,7.99-6.17,17.86-10.82,19.96-11.79,5.81-3.02,12.23-6.03,19.24-8.86,11.61-4.69,22.5-7.94,32.19-10.23.02.08.04.15.05.23.53-.23,1.06-.43,1.61-.61,7.13-2.33,14.76-4.35,22.38-5.08,3.88-.81,7.77-1.61,11.69-2.4,8.34-1.68,16.6-3.28,24.79-4.8,13.21-2.23,26.8-4.31,40.75-6.19,23.37-3.16,45.94-5.53,67.62-7.26-4.7,16.4-9.68,32.31-14.83,48.58-42.12,5.52-161.41,16.15-186.49,47.66-4.92,6.19-6.49,12.75-5.41,20.51ZM1269.3,1799.22c-6.03-54.25-13.5-114.61-16.85-169.07,4.28,2.15,42.52,24.74,42.9,27.19,4.82,31.37,5.92,64.21,8.89,95.98,5.87,62.8,11.71,125.33,21.64,187.67,19.35,149.8,53.5,285.86,109.16,426.25-15.21-5.45-48.25-31.51-55.02-46.48-13.83-30.58-22.36-67.89-31.8-100.45-39.85-137.37-63.02-279.14-78.92-421.1ZM1758.63,1718.38c27.65-.26,53.49-1.83,81.05-3.5,4.34,5.78-.75,171.06-1.27,190.91-3.28,126.14-14.23,252.89-26.47,378.48-4.31,44.17-12.57,88.4-18.16,132.41-13.65,1.76-27.37,3.78-41.11,4.41-1.29-10.98,1.33-27.3,1.75-39.08,7.82-220.97,6.57-442.49,4.21-663.63ZM1852.28,1713.44c26.55-.84,53.04-4.9,79.34-8.56l2.33-.04,1.23,1.88c-6.81,177.13-13.86,356.46-48,530.74-11.31,57.74-24.8,112.29-40.61,168.95-12.71,2.83-25.9,5.31-38.7,7.89h-2.37c-2.63-4.27,4.79-40.41,5.81-47.64,24.65-174.97,35.83-351.93,39.27-528.53.82-41.83,2.06-82.8,1.69-124.7ZM2025.24,1687.59l45.91-13.02,3.26-.45c2.47,5.45-1.15,76.99-1.68,87.48-10.75,210.86-45.05,410.32-121.15,607.99-13.66,5.19-27.56,11.24-41.08,16.91l-1.32.21c-.94-2.62,9.23-25.56,10.76-30.16,70.38-210.87,107.87-446.47,105.3-668.95ZM2126.34,1711.26c-16.8,196.01-36.41,392.46-107.46,577.65-16.61,43.3-10.22,47.01-52.15,73.04-1.58-1.64-.96-2.09-.37-3.6,84.08-214.86,116.58-459.53,119.22-688.21,13.03-6.08,29.48-11.93,43.44-18.15l.6.63c1.36,5.8-2.58,50.43-3.28,58.65ZM2150.62,1938.04c41.39-25.74,44.25-56.59,70.54-91.25,30.48-40.2,91.82-63.27,141.05-68.15,56.06-5.43,96.06,40.29,74.88,94.43-11.34,28.98-46.78,59.85-73.55,74.79-57.28,31.97-122.73,43.8-183.14,69.65-21.58,9.67-34.1,18.64-52.5,32.58,3.63-18.91,16.93-99.86,22.73-112.05ZM2073.44,2306.28c14.04-12.09,46.4-66.77,55.31-83.81l53.15,9.81-.94,1.57c-8.56,14.22-61.49,85.86-60.54,96.62,6.65-.41,16.92-17.65,20.94-23.66,14.79-22.13,39.37-49.02,51.4-72.16,19.15,4.87,37.39,9.75,56.37,15.23-12.11,15.77-23.87,31.52-35.79,47.42-8.7,11.6-24.25,26.12-29.72,39.71l.03.09c2.22.17,1.52.57,2.43-.12l-1.7-1.16,2.9.19c19.53-17.41,57.05-61.29,72.82-82.76,17.42,5.76,35.4,11.9,52.18,19.35-13.51,16.15-61.37,65.28-66.53,80.5.25-.42.5-.84.75-1.26l2.34.09c19.18-18.67,55.56-54.71,71.94-75.07,18.41,8.27,39.1,17.15,55.17,29.37-19.24,18.68-58.38,50.47-72.88,70.01,14.4-8.47,70.64-52.43,81.16-63.98,13.38,12.35,22.11,19.03,28.91,36.48-26.15,17.08-50.8,29.25-78.51,43.64-14.64,7.6-37.87,18.91-50.07,29.02,30.59-8.09,69.21-33.66,99.37-46.56,9.07-3.88,20.54-12.22,29.7-14.52,6.43,6.19-2.69,28.5-6.11,35.74l-1.45.73c-15.34,7.55-131.46,54.25-135.54,60.01l.35,2c7.36.94,110.64-44.44,127.5-49.27-29.03,30.12-71.18,43.28-109.36,57.69-56.45,21.31-115.47,26.11-173.46,39.96-6.58,1.46-9.11,2.32-15.94,2.04,1.52-1.92,6.86-2.81,9.8-3.63,55.63-12.46,201.12-57.04,89.25-120.96-51.49-29.42-106.93-36.28-163.43-47.78,21.59-45.64,30.34-76.5,47.73-121.8,12.2,1.06,22.13,3.62,34.03,6.41-7.93,21.63-42.02,66.77-45.05,84.56l1.47.29ZM1225.25,2377.45c-58.29,70.95,64.23,107.14,102.84,122.82-72.79-9.68-177.15-30.67-241.94-63.15-23.98-10.64-60.16-32.03-76.31-53.07,10.24,7.16,17.46,12,28.68,17.54,8.75,4.76,28.55,15.25,37.9,17.98,15.68,6.35,30.33,11.89,46.26,17.6,4.59,1.56,12.98,5.07,17.14,3.07-3.64-3.35-10.98-5.1-15.97-6.72-1.46-1.01-22.56-10.1-25.7-11.47-14.72-6.41-26.75-12.49-40.77-20.32-13.16-8.19-22.19-15.34-32.81-26.63-5.75-6.11-10.77-7.02-18.23-10.34l-3.88-2.8c-4.02-1.88-2.37-.56-5.05-4.25-.61-4.92-1.41-3.32.64-6.17,3.91,2.66,10.47,8.33,14.48,8.29l1.02-2.73,2.49-2.21,1.95-2.5c-1.93-7.83-10.55-10.84-16.97-18.78,3.86-6.57,4.91-8.02,10.09-13.59,44.69,30.02,92.44,55.23,145.35,67.67-12.03-8.13-35.28-17.25-49.27-24.27-27.98-14.03-61.14-32.76-85.62-52.02,19.23-14.09,31.87-22.43,54.13-31.33,19.37,16.84,63.71,52.45,86.75,57.37l2.11-.78c-.54-5.23-18.1-12.8-22.87-16.47-17.68-13.57-39.83-28.66-54.56-45.29,19.66-8.91,49.13-17.11,70.41-22.64,18.34,21.01,40.67,47.45,67.59,57.4-18.56-17.59-42.41-39.09-55.92-60.43,20.64-4.84,40.72-9.51,61.67-12.84,15.7,25.06,32.65,48.85,60.97,60.03-16.98-18.56-39.64-37.61-51.08-61.34,29.82-4.43,59.34-8,89.24-11.71,26.41,71.82,36.58,156,105.38,202.19,105.67,70.94,253.38,81.15,376.26,69.12,76.64-7.51,168.41-36.7,201.88-110.29l1.88-4.22c39.3,7.17,168.12,23.79,190.91,54.86,2.08,2.83,4.04,6.49,3.77,10.12-.37,5-4.81,8.15-8.61,10.66-26.98,17.8-57.56,25.96-88.49,33.98-79.36,20.58-151.77,26.38-233.19,30.94-58.7,3.29-117.18,5.62-175.98,5.12-57.54-.49-114.98-3.67-172.4-7.12-33.43-2.02-66.75-4.46-100.07-7.86-17.83-1.82-36-3.23-53.53-7.02-13.26-2.86-26.35-7.84-39.17-12.26-36.15-12.46-87.06-28.43-109.18-61.8-4.89-7.38-7.17-15.9-5.35-24.67,3.36-16.28,19.15-29.71,32.71-38.13,27.84-17.29,60.8-20.81,89.37-35.35-29.68,1.1-102.23,23.06-120.93,45.83ZM1989.98,2021.54c-19.16,119.93-49.88,256.07-93.06,369.7-11.37,3.71-22.57,7.3-34.03,10.79l-3.7.48c-1.89-4.71,9.58-34.36,11.43-41.72,19.21-76.61,35.07-157.25,46.17-235.36,12.95-91.16,16.69-183.9,23.42-275.61,3.6-49.04,2.93-98.47,6.31-147.37,21.05-3.02,42.44-7.12,63.23-11.58,2.02-.35,2.38-.17,4.45-.06,11.52,16.55-18.82,297-24.22,330.75ZM1873.93,2430.1c27.44-6.32,51.98-14.42,78.34-21.39-6.14,4.81-12.72,9.39-19.07,13.95-8.39,5.54-19.49,12.15-28.92,16.04-124.41,51.34-274.74,50.84-401.26,6.95-36.84-12.78-91.69-44.89-108.09-79.94,8.63,7.62,19.43,15.62,29.73,21.07,134.34,70.98,303.39,76.91,449.27,43.33ZM1740.72,2416.66l-.8,3.8c-6.92,3.41-40.65,2.35-49.99,2.29l-11.71-223.97-12.13-311.26-3.73-104.96c-.87-21.4-2.41-44.24-2.24-65.51,27.92-.26,59.9,1.1,88.46,1.33l-.66,280.8c.15,140.19.81,277.39-7.2,417.49ZM1679.75,2423.18c-18.57-.23-37.76-1.81-56.35-3.09-3.56-23.28-8.37-46.58-12.03-70.02-30.03-192.21-38.99-386.71-50.55-580.67-1.15-19.17-2.41-39.21-2.59-58.36,30.15,3.38,62.18,4.57,92.54,5.72,5.47,237.69,18.06,469.47,28.98,706.42ZM1588.27,2263.76c6.31,50.94,13.53,103.92,25.17,153.82-6,1.46-41.3-5.93-48.88-7.59-49.89-174.04-75.48-366.29-89.79-546.36-4.22-53.11-9.94-111.47-10.18-164.24,27.03,4.68,56.04,7.74,83.35,10.67,10.48,184.67,17.58,370,40.33,553.7ZM1553.71,2407.91c-15.15-3.39-30.27-7.18-45.35-10.86-9.83-30.27-22.62-58.43-31.79-90.62-57.43-201.45-85.38-415.15-97.65-623.87,24.89,5.99,49.44,10.42,74.59,14.96,10.78,225.62,36.59,493.94,100.21,710.39ZM1466.31,2309.96c8.37,29.16,21.2,55.73,31.05,84-12.45-1.76-39.89-14.39-50.85-21.06-8.18-22.18-15.52-44.38-23.42-66.6-64.98-182.65-92.08-377.49-110-569.72-2.32-24.82-4.97-50.68-5.32-75.56,19.62,5.34,39.62,13.18,60.22,18.72,1.69,18.97,2.85,38.26,4.21,57.33,13.75,193.2,40.59,386.41,94.13,572.89ZM2368.33,2254.74c252.25,103.25,135.53,181.67-50.34,248.51-147.33,48.89-322.13,74.57-476.79,84.69-45.16,2.96-94.87,3.43-140.14,2.53-40.44-.8-82.42-4.19-123.04-5.18-5.24-.13-12.6,0-16.98,2.9,5.18,2.8,59.87,7.68,69.12,8.62,123.27,12.46,249.14,9.02,371.99-6.33,38.67-4.83,77.19-11.16,115.98-15.01,21.84-2.17,43.53-6.16,65.53-5.29-34.88,31.02-161.79,59.39-210.33,68.36-195.95,36.21-492.93,28.15-677.75-47.3-29.73-12.14-59.34-26.78-85.82-45.05-13.44-9.28-25.95-24.12-40.9-30.45-18.51-7.84-41.5-10.49-61.02-15.96-59.05-16.55-122.8-39.17-173.39-74.41-20.48-14.27-40.05-32.48-44-58.48-2.46-16.14,4.39-31.09,14.03-43.61,61.28-79.62,302.44-124.58,401.39-137.1,2.26-.48,10.56-.68,13.32-.81,2.11,5.79,3.8,12.94,5.42,18.97-104.66,13.1-216.48,28.22-308.4,84.01-38.84,23.57-58.56,70.17-29.85,108.47,45.97,61.34,160.51,87.87,232.14,102.74,130.95,27.19,265.32,35.3,398.39,42.66,94.37,4.34,197.17,2.98,291.56-2.54,140.62-8.61,286.18-18.98,418.46-71.15,43.17-17.02,93.7-39.63,102.77-90.14,3.06-17.06.3-39.16-10.98-52.34-68.92-80.5-221.39-105.6-318.55-123.25,2.24-4.48,4.92-8.91,7.45-13.25,92.16,14.33,173.84,29.63,260.74,65.2ZM2211.11,1745.83c37.17-19.16,76.06-30,117.63-33.44,43.2-5.08,97.66,4.71,133.13,31.42,48.49,35.47,36.57,106.84,11.47,152.45-38.36,69.71-96.75,103.34-169.71,127.39-70.41,23.21-148.86,53.37-197.26,112.86,5.51-22.27,9.77-43.57,15.9-65.84,37.36-32.93,114.17-55.62,162.4-70.77,56.22-19.01,102.73-39.03,144.32-83.75,30.87-30.91,54.44-78.12,39.42-122.61-20.62-61.06-104.14-60.46-153.98-42.73-59.78,21.26-105.59,56.17-137.88,110.88-8.42,14.27-15.25,28.87-22.42,43.51.75-22.41,4.14-43.63,6.75-65.8,2.72-23.04,5.02-46.34,7.29-69.44,14.21-7.28,28.46-16.66,42.93-24.12ZM2129.66,1536.16c22.46,12.32,49.16,44.89,27.72,68.34-43.89,47.99-134.49,65.38-195.94,76.68-60.3,11.09-118.41,13.49-178.96,16.7-100.15,2.84-197.71-1.57-296.72-15.66-57.2-8.14-111.64-16.88-166.33-37.09-16.84-7.13-36.22-17.37-50.79-27.96-20.62-14.98-28.59-41.62-10.01-61,57.62-60.14,194.76-82.57,272.53-90.98,16.02-2.8,43.26-4.7,59.88-6.25-1.06,6-2.77,12.38-4.22,18.34-79.71,6-226.38,22.78-290.22,74.09-8.24,6.62-17.67,15.82-18.49,26.96-.58,7.88,3.23,15.01,8.31,20.77,50.23,56.89,261.53,74.72,334.28,78.41,47.96,2.43,96.4,4.12,144.4,3.03,81.27-1.86,301.85-17.22,360.7-72.5,6.79-6.37,12.39-14.72,12.21-24.37-.18-9.5-5.91-17.36-12.35-23.84-51.53-51.9-215.16-75.67-286.12-82.46-49.58-4.74-99.34-6.42-149.12-6.91,2.53-5.45,5.2-10.89,7.8-16.31,142.08,2.99,304,12.14,431.44,82.02ZM2711.31,355.19c6.02-8.96,17.44-16.16,28.19-18.31,4.99.85,5.52,1.03,10.28,2.84l.35,1.47c-39.28,7.78-39.45,59.03,5.24,57.71,39.74-1.17,78.7-11.2,118.37-14.73,34.49-3.07,58.62-7.14,92.46,3.19,97.82,29.87,111.29,128.44,17.13,176.53l-16.95,7.17c-4.23-2.81-9.14-6.71-13.29-9.8,49.24-27.09,87.77-99.2,26.79-137.95-54.55-34.66-141.38-9.72-201.63-8.73-12.51.21-31.56.25-43.71,3.14-28.1-14.05-47.98-25.68-23.22-62.52ZM2934.66,548c-14.54-8.6-27.81-17.22-41.95-26.48-40.17-26.77-95.86-63.91-137.23-87.23,36.47.49,88.64-5.41,126.44-8.34,21.55-2.93,57.52-.68,77.36,8.55,60.47,28.11,23,96.42-24.61,113.51ZM2397.5,571.72c30.81-70.01,85.52-169.47,165.65-187.33,36.65-3.7,35.43,38.52,32.12,63.52-6.59,49.82-31.52,96.34-59.92,137.19-2.88,4.53-6.9,10.51-12.1,17.22-1.1,1.42-11.22,14.41-22.19,24.69-25.21,23.62-54.7,33.48-54.7,33.48-32.21,10.77-60.67,6.76-75.03,3.62,6.11-32.12,12.91-62.27,26.17-92.4ZM3075.53,726.31c-.33,25.59-4.68,51.55-10.21,76.67-21.12,95.97-76.03,195.16-158.13,251.58-6.86,4.72-16.06,10.17-24.45,8.27-3.93-2.65-3.66-2.84-5.28-7.13,1.27-5.97,18.34-10.43,24.1-14.13,65.98-42.32,100.46-109.66,131.69-178.16-16.48-10.72-33.17-22.2-50.64-31.14-63.14-32.33-133.41-52.21-204.55-41.65-95.08,14.12-190.94,35.44-286.99,16.18-14.97-3-34.88-13.89-50.15-19.49,11.17,10.05,23.76,19.23,35.75,28.35,64.45,45.63,142.48,88,210.55,129.02,55.13,33.23,115.91,76.28,173.18,103.42,4.01,7.71,6.55,13.34,9.89,21.39-4.35-.72-14.73-2.16-18.17-3.75-29.84-13.79-60.87-36.26-89.15-53.51l-220.41-136.78c-115.22-72.53-200.55-141.91-339.05-158.86,26.43-7.74,101.68-14.36,128.44-12.59,64.78,4.27,120.27,12.58,177.2-30.15,65.48-49.15,116.78-141.09,129.24-221.46,4.47-28.83,6.66-52.69-10.74-77.11,11.23,4.65,30.52,17.29,41.39,23.99l76.12,47.67c100.79,63.65,200.06,129.11,298.52,196.34,30.48,20.81,32.3,48.63,31.85,83.04Z"/>
  <path class="st0" d="M2676.66,418.5c-6.55-4.63-16.38-12.43-24.05-14.04,2.35,27.11,2.89,53.32-4.5,79.8-11.45,41.01-29.53,80-51.31,116.51-4.89,8.19-20.5,31.45-19.75,38.87,9.11-3.35,37.68-48.37,43.82-59.4,22.42-40.28,41.54-83.1,51.4-128.23,5.64,2.74,10.97,5.61,16.34,8.87,44.45,27,90.46,51.59,134.95,78.5,50.62,30.26,102.36,58.67,154.25,86.66,6.68,3.61,13.22,7.28,20.13,10.45-62.7-45.82-128.5-88.47-192-133.29-42.04-29.67-87.57-54.51-129.27-84.69Z"/>
  <path class="st0" d="M1032.06,2402.38l.25.2c.78.22,1.88.75-.25-.2Z"/>
  <path class="st0" d="M1075.53,2424.47c-10.36-5.88-31.19-17.33-42.13-21.81l.64,1.34-1.73-1.41c-.79-.22-1.25-.11,2.28,2.19,11.9,7.77,41.8,27.16,53.58,30.5l1.83-.18c-1.25-2.8-8.56-4.12-14.46-10.62Z"/>
  <path class="st0" d="M1470.85,1606.72c-1.81-7.1,8.6-13.29,9.35-19.45-2.49-1.49-2.29-1.49-5.17-1.61-48.96,15.98-21.75,44.36,13.95,50.8,5.71.61,10.94,1.32,16.7,1.25-11.07-9.19-31.64-18.49-34.84-30.99Z"/>
  <path class="st0" d="M1377.68,1084.15c-27.96,42.89,12.92,66.06,52.03,62.45,34.24-5.4,69.38-21.05,90.22-49.37,29.36-39.9-7.15-69.33-47.64-63.79-33.28,5.33-75.89,22.03-94.6,50.71Z"/>
  <path class="st0" d="M1252.33,1315.61c58.9-21.1,83.36-151.02,8.41-147.33-26.52,9.47-31.15,20.67-43.95,43.66-18.93,34.01-23.74,112.76,35.53,103.67Z"/>
  <path class="st0" d="M1333.43,995.23c81.68-9.29,127.37-127.59,46.81-121.89-33.53,5-68.34,31.71-83.84,61.19-17.46,33.21-.67,61.52,37.03,60.7Z"/>
  <path class="st0" d="M1367.94,1315.73c-84.33,20.4-108.22,138.52-25.27,120.76,13.87-3.88,22.16-7.61,34.88-16.43,27.83-19.31,62-75.22,21.06-98.88-9.14-5.28-19.9-6.11-30.67-5.45Z"/>
</svg>