<?xml version="1.0" encoding="UTF-8"?>
<svg id="Layer_1" xmlns="http://www.w3.org/2000/svg" version="1.1" viewBox="0 0 792 612">
  <!-- Generator: Adobe Illustrator 30.0.0, SVG Export Plug-In . SVG Version: 2.1.1 Build 123)  -->
  <defs>
    <style>
      .st0 {
        fill: #dae47c;
      }

      .st1 {
        fill: #f5e186;
      }
    </style>
  </defs>
  <path class="st1" d="M433.55,376.42c16.86-9.73,29.68-23.76,37.94-39.88-38.59,19.7-86.28,5.91-108.2-32.05-21.92-37.96-10.02-86.16,26.34-109.73-18.1-.91-36.65,3.19-53.51,12.92-46.6,26.9-62.56,86.49-35.66,133.08,26.9,46.6,86.49,62.56,133.08,35.66Z"/>
  <path class="st0" d="M373.19,246.6c46.57-2.34,38.77-4.23,41.11-50.8,2.34,46.57-5.46,48.47,41.11,50.8-46.57,2.34-38.77,4.23-41.11,50.8-2.34-46.57,5.46-48.47-41.11-50.8Z"/>
  <path class="st0" d="M434.34,305.99c19.55-.98,16.28-1.78,17.26-21.33.98,19.55-2.29,20.35,17.26,21.33-19.55.98-16.28,1.78-17.26,21.33-.98-19.55,2.29-20.35-17.26-21.33Z"/>
</svg>