<?xml version="1.0" encoding="UTF-8"?>
<svg id="Layer_1" xmlns="http://www.w3.org/2000/svg" version="1.1" viewBox="0 0 792 612">
  <!-- Generator: Adobe Illustrator 30.0.0, SVG Export Plug-In . SVG Version: 2.1.1 Build 123)  -->
  <defs>
    <style>
      .st0 {
        fill: #bb93f5;
      }
    </style>
  </defs>
  <path class="st0" d="M360.98,280.54c.89,3.03,2.33,7.03,4.31,12.04.18.44.68,2.89,1.49,7.34.1.55,0,1.14-.28,1.65-2.97,5.36-8.94,5.85-11.01-.73-1.72-5.45-3.48-10.68-5.29-15.69-.28-.78-1.1-1.23-1.9-1.04-8.7,1.9-17.62,1.71-26.77-.56-.42-.1-.86.11-1.01.52-2.24,5.62-3.71,9.81-4.41,12.53-.76,2.97-3.03,9.23-6.7,9.4-3.97.17-5.82-3.31-6.79-6.64-.11-.35-.1-.73.03-1.07l6.82-18.51c.16-.41-.04-.87-.44-1.04-4.24-1.93-8.23-4.54-11.95-7.84-.86-.78-2.17-.76-3.03.01-2,1.79-4.89,4.57-8.68,8.3-3.92,3.88-12.36,8.19-14.36-.24-.47-1.96.13-3.62,1.8-4.96,4.31-3.45,8.8-7.33,13.45-11.6.58-.54.73-1.37.41-2.07l-3.76-8.13c-.14-.32-.17-.68-.08-1,.61-2.21,1.71-3.68,3.3-4.38,5.55-2.45,7.98,1.01,10.75,5.74,2.8,4.81,6.47,8.68,10.97,11.64,6.36,4.19,12.85,6.92,19.51,8.22,14.98,2.92,31.42-2.57,42.57-12.83,3.68-3.38,6.15-8.7,9.02-12.32.94-1.2,2.51-1.71,3.97-1.3,2.3.66,4.1,2.11,5.4,4.37.25.44.3.96.11,1.44-1.34,3.62-3.26,6.79-5.72,9.49-.32.35-.3.89.07,1.2l14.52,12.11c2.35,1.96,2.66,5.44.7,7.79l-.49.61c-1.95,2.33-5.4,2.65-7.72.7l-14.22-11.85c-.68-.56-1.65-.62-2.38-.14l-11.81,7.84c-.34.21-.49.63-.38,1.01h0Z"/>
  <path class="st0" d="M510.63,280.25l5.91,16.17c1.16,3.16-.24,6.67-3.24,8.16l-.58.3c-2.47,1.27-5.5.08-6.44-2.52l-6.58-18.01c-.17-.45-.62-.75-1.1-.69-.9.08-3.76.52-8.57,1.32-4.55.75-10.25.56-17.1-.56-1.55-.25-3.06.62-3.59,2.09l-5.88,15.96c-1.01,2.75-4.12,4.09-6.81,2.92l-.55-.24c-2.92-1.27-4.34-4.58-3.24-7.57l6.13-16.63c.21-.56-.01-1.18-.54-1.48l-14.42-8.33c-.35-.21-.82-.16-1.11.14l-12.15,12.15c-2.48,2.48-6.5,2.42-8.92-.1l-.37-.38c-2.1-2.18-1.92-5.68.39-7.64,4.33-3.66,8.3-7.36,11.95-11.09,2.82-2.88.25-5.96-1.21-8.19-.2-.3-.66-2.06-1.41-5.29-.11-.48,0-.97.28-1.35,6.05-8.12,10.7.72,13.87,4.99,3.31,4.5,6.99,7.95,11.01,10.39,9.77,5.91,20.72,9.5,32.5,8.13,9.42-1.09,18-4.48,25.77-10.18,4.06-2.97,7.54-6.95,10.44-11.91,2.33-3.97,4.85-6.15,9.23-3.64,1.2.68,2.16,1.99,2.9,3.93.17.44.2.92.07,1.37-.85,3-2.03,5.53-3.54,7.57-.7.96-.54,2.31.39,3.07l12.95,10.56c2.31,1.89,2.57,5.34.55,7.54l-.1.13c-1.93,2.24-5.22,2.72-7.71,1.13-5.84-3.71-10.26-7.46-13.29-11.22-.69-.87-1.95-1.06-2.88-.44l-12.69,8.4c-.35.23-.49.66-.35,1.06h0Z"/>
</svg>